<mxfile host="app.diagrams.net" modified="2024-07-18T00:32:02.039Z" agent="Mozilla/5.0 (Windows NT 10.0; Win64; x64) AppleWebKit/537.36 (KHTML, like Gecko) Chrome/126.0.0.0 Safari/537.36" version="24.7.1" etag="h6grA3eb8TplEf_RKL6u" type="github">
  <diagram name="PÃ¡gina-1" id="IawGlgxubN7piC7rl004">
    <mxGraphModel>
      <root>
        <mxCell id="0" />
        <mxCell id="1" parent="0" />
      </root>
    </mxGraphModel>
  </diagram>
</mxfile>
